<svg id="Capa_1" enable-background="new 0 0 512 512" height="512" viewBox="0 0 512 512" width="512" xmlns="http://www.w3.org/2000/svg"><g><g><path d="m454.491 113.24-23.382-67.095h-136.734l18.753 67.095z" fill="#e4336d"/></g><g><path d="m149.012 46.145 27.382 67.095h79.606l29.745-33.548-29.745-33.547z" fill="#9ffcfe"/><path d="m294.375 46.145h-38.375v67.095h61.757z" fill="#7be2f6"/></g><g><path d="m181.906 109.954-32.851-94.266h-149.055v408.167h256l64.418-173.221-64.418-140.68z" fill="#fddf5b"/><path d="m256 109.954h256v313.901h-256z" fill="#fbc551"/></g><g><g><g><path d="m60.39 258.212v238.101h195.61l7.774-109.828-7.774-128.273z" fill="#edf6ff"/><path d="m256 258.212h195.61v238.101h-195.61z" fill="#d7e9fe"/></g><g><path d="m214.459 316.129v30h26.56v90.835h14.981l7.774-59.702-7.774-61.133z" fill="#345ca0"/><path d="m256 316.129v120.835h15.019v-90.835h24.522v-30z" fill="#084792"/></g><path d="m125.917 436.964h30v-36.835h36.523v-30h-36.523v-24h36.523v-30h-66.523z" fill="#345ca0"/><g><path d="m359.953 316.129h-40.564v120.835h30v-32.917h10.564c24.239 0 43.958-19.72 43.958-43.959s-19.72-43.959-43.958-43.959zm0 57.917h-10.564v-27.917h10.564c7.697 0 13.958 6.262 13.958 13.959s-6.262 13.958-13.958 13.958z" fill="#084792"/></g></g></g></g></svg>