<svg id="Capa_1" enable-background="new 0 0 512 512" height="512" viewBox="0 0 512 512" width="512" xmlns="http://www.w3.org/2000/svg"><g><path d="m512 240.639h-512v-47.375c0-9.699 7.862-17.561 17.561-17.561h476.878c9.699 0 17.561 7.862 17.561 17.561z" fill="#26a6fe"/><path d="m494.439 175.703h-35.844c9.699 0 17.561 7.862 17.561 17.561v47.375h35.844v-47.375c0-9.699-7.862-17.561-17.561-17.561z" fill="#0593fc"/><path d="m512 240.639h-512v237.634c0 9.699 7.862 17.561 17.561 17.561h476.878c9.699 0 17.561-7.862 17.561-17.561z" fill="#eaf6ff"/><path d="m476.156 240.639v237.634c0 9.699-7.862 17.561-17.561 17.561h35.844c9.699 0 17.561-7.862 17.561-17.561v-237.634z" fill="#d8ecfe"/><g fill="#bbec6c"><path d="m318.449 347.686h-36.241c-4.267 0-7.726 3.459-7.726 7.726v89.417c0 4.268 3.459 7.726 7.726 7.726s7.726-3.459 7.726-7.726v-37.829h25.636c4.267 0 7.726-3.459 7.726-7.726s-3.459-7.726-7.726-7.726h-25.636v-28.408h28.515c4.267 0 7.726-3.459 7.726-7.726s-3.459-7.728-7.726-7.728z"/><path d="m234.889 393.912c-11.643-4.296-22.439-8.986-25.105-10.158-2.989-2.175-4.442-5.661-3.9-9.432.676-4.707 4.281-8.483 9.643-10.098 14.597-4.397 27.755 6.143 28.049 6.382 3.266 2.722 8.122 2.294 10.861-.964 2.745-3.267 2.323-8.141-.943-10.886-.79-.663-19.62-16.197-42.424-9.329-11.104 3.346-18.952 12.043-20.481 22.699-1.423 9.913 2.87 19.446 11.203 24.879.342.222.7.418 1.072.583.517.23 12.817 5.706 26.679 10.819 10.111 3.73 15.238 9.634 14.065 16.199-1.138 6.376-8.259 13.154-19.213 13.154-9.934 0-19.528-4.042-25.664-10.814-2.865-3.162-7.751-3.401-10.914-.537-3.161 2.866-3.402 7.752-.537 10.913 9.017 9.95 22.892 15.89 37.115 15.89 16.99 0 31.79-11.131 34.426-25.89 3.035-17.005-10.373-28.409-23.932-33.41z"/><path d="m396.666 347.686h-49.745c-4.267 0-7.726 3.459-7.726 7.726s3.459 7.726 7.726 7.726h17.046v82.35c0 4.268 3.459 7.726 7.726 7.726s7.726-3.459 7.726-7.726v-82.35h17.247c4.267 0 7.726-3.459 7.726-7.726s-3.459-7.726-7.726-7.726z"/><path d="m450.775 347.686h-25.081c-.259 0-.516.013-.772.039-.213.021-.422.056-.629.094-.04.007-.08.01-.12.018-.247.049-.489.111-.727.183-.001 0-.002 0-.003.001-.485.147-.949.341-1.388.576-.002.001-.003.002-.005.003-.208.112-.41.234-.606.364-.015.01-.03.017-.045.027-.21.14-.412.29-.607.45 0 .001-.001.001-.001.001-.196.161-.385.332-.564.512-.001.001-.002.002-.003.003-.024.024-.045.052-.069.076-.151.155-.298.315-.436.482-.041.05-.076.104-.116.155-.116.149-.23.298-.335.454-.032.048-.059.1-.09.148-.104.164-.207.33-.299.502-.023.043-.041.088-.063.131-.092.181-.182.364-.26.553-.017.041-.029.083-.045.124-.076.192-.148.386-.208.586-.016.054-.027.11-.042.164-.052.187-.103.374-.141.566-.018.092-.027.185-.042.277-.025.157-.054.313-.069.473-.016.16-.019.321-.024.483-.003.093-.014.184-.014.278v90.076c0 4.268 3.459 7.726 7.726 7.726s7.726-3.459 7.726-7.726v-31.442c5.766-.032 13.39-.069 17.355-.069 18.551 0 33.644-14.869 33.644-33.146-.003-18.273-15.096-33.142-33.647-33.142zm0 50.839c-3.945 0-11.465.036-17.224.068-.031-5.921-.068-13.735-.068-17.762 0-3.403-.021-11.532-.039-17.693h17.332c9.861 0 18.191 8.103 18.191 17.693s-8.332 17.694-18.192 17.694z"/></g><g fill="#bbec6c"><path d="m381.691 83.913v11.89c0 1.097-.889 1.986-1.986 1.986h-207.581c-8.595 0-15.562 6.967-15.562 15.562 0 8.595 6.967 15.562 15.562 15.562h207.581c1.097 0 1.986.889 1.986 1.986v11.89c0 5.406 6.55 8.098 10.351 4.253l29.106-29.438c2.33-2.357 2.33-6.15 0-8.507l-29.106-29.437c-3.801-3.844-10.351-1.153-10.351 4.253z"/><path d="m130.613 22.228v11.89c0 1.097.889 1.986 1.986 1.986h207.581c8.595 0 15.562 6.967 15.562 15.562 0 8.595-6.967 15.562-15.562 15.562h-207.582c-1.097 0-1.986.889-1.986 1.986v11.89c0 5.406-6.55 8.098-10.351 4.253l-29.106-29.438c-2.33-2.357-2.33-6.15 0-8.507l29.106-29.438c3.801-3.844 10.352-1.153 10.352 4.254z"/></g><g><path d="m421.148 109.098-29.106-29.438c-3.801-3.844-10.352-1.153-10.352 4.253v5.75l19.215 19.434c2.33 2.357 2.33 6.15 0 8.507l-19.215 19.434v5.75c0 5.406 6.55 8.098 10.352 4.253l29.106-29.438c2.33-2.355 2.33-6.149 0-8.505z" fill="#a2e62e"/><g><path d="m340.179 36.103h-20.243c8.595 0 15.562 6.967 15.562 15.562s-6.967 15.562-15.562 15.562h20.243c8.595 0 15.562-6.967 15.562-15.562s-6.967-15.562-15.562-15.562z" fill="#a2e62e"/></g></g><circle cx="30.947" cy="208.172" fill="#fe5694" r="7.726"/><g><path d="m97.992 283.968c-20.324 0-36.846 16.532-36.846 36.846v31.038c0 3.975 3.216 7.2 7.2 7.2h7.2v-38.238c0-12.375 10.061-22.446 22.446-22.446 12.375 0 22.446 10.071 22.446 22.446v38.238h7.2c3.975 0 7.2-3.226 7.2-7.2v-31.038c0-20.314-16.532-36.846-36.846-36.846z" fill="#a8d3d8"/><path d="m115.726 445.488h-64.286c-8.909 0-16.132-7.222-16.132-16.132v-61.373c0-8.909 7.222-16.132 16.132-16.132h64.286c8.909 0 34.122 7.222 34.122 16.132v61.373c-.001 8.91-25.213 16.132-34.122 16.132z" fill="#ffe177"/><path d="m144.541 351.852h-28.815c8.909 0 16.132 7.222 16.132 16.132v61.373c0 8.909-7.222 16.132-16.132 16.132h28.815c8.909 0 16.132-7.222 16.132-16.132v-61.373c0-8.91-7.223-16.132-16.132-16.132z" fill="#ffd15b"/><path d="m97.99 414.868c-3.977 0-7.2-3.223-7.2-7.2v-17.476c0-3.977 3.224-7.2 7.2-7.2s7.2 3.223 7.2 7.2v17.476c0 3.977-3.223 7.2-7.2 7.2z" fill="#8ebac5"/></g></g></svg>